<svg xmlns="http://www.w3.org/2000/svg" xmlns:xlink="http://www.w3.org/1999/xlink" aria-hidden="true" role="img" class="iconify iconify--logos" width="15.87" height="14" preserveAspectRatio="xMidYMid meet" viewBox="0 0 256 228"><path fill="#00D8FF" d="M210.483 73.824a171.49 171.49 0 0 0-8.24-2.597c.465-1.9.893-3.777 1.273-5.621c6.238-30.281 2.16-54.676-11.769-62.708c-13.355-7.7-35.196.329-57.254 19.526a171.23 171.23 0 0 0-6.375 5.848a155.866 155.866 0 0 0-4.241-3.917C100.759 3.829 77.587-4.822 63.673 3.233C49.33 11.558 45.56 36.785 52.018 67.767a170.974 170.974 0 0 0 1.892 8.48c-3.28.932-6.445 1.924-9.474 2.98C17.309 86.698 0 98.307 0 110.027c0 11.721 17.309 23.33 44.916 33.436a145.52 145.52 0 0 0 9.549 2.988a167.467 167.467 0 0 0-1.918 8.562c-6.458 30.982-2.688 56.209 11.655 64.533c13.914 8.055 37.086-.596 60.924-20.469a145.567 145.567 0 0 0 4.319-3.96a168.064 168.064 0 0 0 6.311 5.796c22.058 19.197 43.899 27.226 57.254 19.526c13.929-8.032 18.007-32.427 11.769-62.708a170.49 170.49 0 0 0-1.273-5.621c2.62-.84 5.158-1.718 7.598-2.637C238.691 133.357 256 121.748 256 110.027c0-11.72-17.309-23.329-45.517-33.203zM128.144 125.739c-8.477 0-15.348-6.871-15.348-15.348s6.871-15.348 15.348-15.348s15.348 6.871 15.348 15.348s-6.871 15.348-15.348 15.348z"></path></svg> 